<mxfile host="app.diagrams.net" modified="2024-01-02T21:50:26.667Z" agent="Mozilla/5.0 (Windows NT 10.0; Win64; x64; rv:121.0) Gecko/20100101 Firefox/121.0" etag="eS9j2uTQSn3Kl2Fjgmbm" version="22.1.16" type="device">
  <diagram name="Page-1" id="2uLy9ceTtDUh2LVfmdL8">
    <mxGraphModel dx="1962" dy="1668" grid="0" gridSize="10" guides="1" tooltips="1" connect="1" arrows="1" fold="1" page="0" pageScale="1" pageWidth="850" pageHeight="1100" math="0" shadow="0">
      <root>
        <mxCell id="0" />
        <mxCell id="1" parent="0" />
        <mxCell id="zuzwGjNrBEtmqdUJanQg-34" style="edgeStyle=orthogonalEdgeStyle;rounded=0;orthogonalLoop=1;jettySize=auto;html=1;exitX=1;exitY=1;exitDx=0;exitDy=0;entryX=0.76;entryY=0.476;entryDx=0;entryDy=0;entryPerimeter=0;fontSize=12;shape=link;fillColor=#f8cecc;strokeColor=#b85450;" edge="1" parent="1">
          <mxGeometry relative="1" as="geometry">
            <mxPoint x="188" y="-481" as="sourcePoint" />
            <mxPoint x="193" y="-280" as="targetPoint" />
            <Array as="points">
              <mxPoint x="126" y="-481" />
              <mxPoint x="126" y="-280" />
            </Array>
          </mxGeometry>
        </mxCell>
        <mxCell id="zuzwGjNrBEtmqdUJanQg-29" style="edgeStyle=none;curved=0;rounded=0;orthogonalLoop=1;jettySize=auto;html=1;entryX=0.5;entryY=1;entryDx=0;entryDy=0;fontSize=12;fillColor=#f8cecc;strokeColor=#b85450;shape=link;" edge="1" parent="1" source="zuzwGjNrBEtmqdUJanQg-9" target="zuzwGjNrBEtmqdUJanQg-3">
          <mxGeometry relative="1" as="geometry">
            <Array as="points">
              <mxPoint x="300" y="-115" />
            </Array>
          </mxGeometry>
        </mxCell>
        <mxCell id="zuzwGjNrBEtmqdUJanQg-30" value="&lt;div&gt;8. Send Response Action&lt;/div&gt;" style="edgeLabel;html=1;align=center;verticalAlign=middle;resizable=0;points=[];fontSize=16;" vertex="1" connectable="0" parent="zuzwGjNrBEtmqdUJanQg-29">
          <mxGeometry x="-0.4286" y="-5" relative="1" as="geometry">
            <mxPoint as="offset" />
          </mxGeometry>
        </mxCell>
        <mxCell id="zuzwGjNrBEtmqdUJanQg-25" style="edgeStyle=orthogonalEdgeStyle;rounded=0;orthogonalLoop=1;jettySize=auto;html=1;exitX=1;exitY=1;exitDx=0;exitDy=0;entryX=0.76;entryY=0.476;entryDx=0;entryDy=0;entryPerimeter=0;fontSize=12;shape=link;fillColor=#ffe6cc;strokeColor=#d79b00;" edge="1" parent="1" source="zuzwGjNrBEtmqdUJanQg-8" target="zuzwGjNrBEtmqdUJanQg-3">
          <mxGeometry relative="1" as="geometry">
            <Array as="points">
              <mxPoint x="279" y="-478" />
              <mxPoint x="279" y="-277" />
            </Array>
          </mxGeometry>
        </mxCell>
        <mxCell id="zuzwGjNrBEtmqdUJanQg-26" value="6. Send Email" style="edgeLabel;html=1;align=center;verticalAlign=middle;resizable=0;points=[];fontSize=16;" vertex="1" connectable="0" parent="zuzwGjNrBEtmqdUJanQg-25">
          <mxGeometry x="0.293" relative="1" as="geometry">
            <mxPoint as="offset" />
          </mxGeometry>
        </mxCell>
        <mxCell id="zuzwGjNrBEtmqdUJanQg-10" style="edgeStyle=none;curved=1;rounded=0;orthogonalLoop=1;jettySize=auto;html=1;entryX=0.5;entryY=1;entryDx=0;entryDy=0;entryPerimeter=0;fontSize=12;startArrow=classic;startFill=1;shape=link;fillColor=#f5f5f5;strokeColor=#666666;" edge="1" parent="1" source="zuzwGjNrBEtmqdUJanQg-1" target="zuzwGjNrBEtmqdUJanQg-2">
          <mxGeometry relative="1" as="geometry" />
        </mxCell>
        <mxCell id="zuzwGjNrBEtmqdUJanQg-11" value="&lt;div&gt;1. Send Events&lt;/div&gt;" style="edgeLabel;html=1;align=center;verticalAlign=middle;resizable=0;points=[];fontSize=16;" vertex="1" connectable="0" parent="zuzwGjNrBEtmqdUJanQg-10">
          <mxGeometry x="-0.005" y="1" relative="1" as="geometry">
            <mxPoint as="offset" />
          </mxGeometry>
        </mxCell>
        <mxCell id="zuzwGjNrBEtmqdUJanQg-12" style="edgeStyle=none;curved=1;rounded=0;orthogonalLoop=1;jettySize=auto;html=1;entryX=0.5;entryY=1;entryDx=0;entryDy=0;entryPerimeter=0;fontSize=12;startArrow=classic;startFill=1;shape=link;fillColor=#f5f5f5;strokeColor=#666666;" edge="1" parent="1">
          <mxGeometry relative="1" as="geometry">
            <mxPoint x="198.5" y="-137.5" as="sourcePoint" />
            <mxPoint x="198.5" y="-262.5" as="targetPoint" />
          </mxGeometry>
        </mxCell>
        <mxCell id="zuzwGjNrBEtmqdUJanQg-39" style="edgeStyle=orthogonalEdgeStyle;rounded=0;orthogonalLoop=1;jettySize=auto;html=1;entryX=0.5;entryY=1;entryDx=0;entryDy=0;fontSize=12;shape=link;fillColor=#f8cecc;strokeColor=#b85450;" edge="1" parent="1" source="zuzwGjNrBEtmqdUJanQg-1" target="zuzwGjNrBEtmqdUJanQg-6">
          <mxGeometry relative="1" as="geometry">
            <Array as="points">
              <mxPoint x="50" y="72" />
              <mxPoint x="50" y="-260" />
            </Array>
          </mxGeometry>
        </mxCell>
        <mxCell id="zuzwGjNrBEtmqdUJanQg-40" value="&lt;div&gt;8. Perform Response Action&lt;/div&gt;" style="edgeLabel;html=1;align=center;verticalAlign=middle;resizable=0;points=[];fontSize=16;" vertex="1" connectable="0" parent="zuzwGjNrBEtmqdUJanQg-39">
          <mxGeometry x="-0.0262" relative="1" as="geometry">
            <mxPoint as="offset" />
          </mxGeometry>
        </mxCell>
        <mxCell id="zuzwGjNrBEtmqdUJanQg-1" value="&lt;div&gt;Windows 10 Client&lt;/div&gt;&lt;div&gt;Wazuh Agent&lt;br&gt;&lt;/div&gt;" style="fontColor=#0066CC;verticalAlign=top;verticalLabelPosition=bottom;labelPosition=center;align=center;html=1;outlineConnect=0;fillColor=#CCCCCC;strokeColor=#6881B3;gradientColor=none;gradientDirection=north;strokeWidth=2;shape=mxgraph.networks.pc;fontSize=16;" vertex="1" parent="1">
          <mxGeometry x="149" y="37" width="100" height="70" as="geometry" />
        </mxCell>
        <mxCell id="zuzwGjNrBEtmqdUJanQg-2" value="&lt;div&gt;Router&lt;/div&gt;" style="sketch=0;points=[[0.5,0,0],[1,0.5,0],[0.5,1,0],[0,0.5,0],[0.145,0.145,0],[0.8555,0.145,0],[0.855,0.8555,0],[0.145,0.855,0]];verticalLabelPosition=bottom;html=1;verticalAlign=top;aspect=fixed;align=center;pointerEvents=1;shape=mxgraph.cisco19.rect;prIcon=router;fillColor=#FAFAFA;strokeColor=#005073;fontSize=16;" vertex="1" parent="1">
          <mxGeometry x="174" y="-138" width="50" height="50" as="geometry" />
        </mxCell>
        <mxCell id="zuzwGjNrBEtmqdUJanQg-16" style="edgeStyle=none;curved=1;rounded=0;orthogonalLoop=1;jettySize=auto;html=1;fontSize=12;shape=link;fillColor=#f5f5f5;strokeColor=#666666;" edge="1" parent="1" source="zuzwGjNrBEtmqdUJanQg-3" target="zuzwGjNrBEtmqdUJanQg-6">
          <mxGeometry relative="1" as="geometry" />
        </mxCell>
        <mxCell id="zuzwGjNrBEtmqdUJanQg-17" value="2. Receive Events" style="edgeLabel;html=1;align=center;verticalAlign=middle;resizable=0;points=[];fontSize=16;" vertex="1" connectable="0" parent="zuzwGjNrBEtmqdUJanQg-16">
          <mxGeometry x="-0.0182" relative="1" as="geometry">
            <mxPoint as="offset" />
          </mxGeometry>
        </mxCell>
        <mxCell id="zuzwGjNrBEtmqdUJanQg-3" value="&lt;div&gt;Internet&lt;/div&gt;" style="image;aspect=fixed;perimeter=ellipsePerimeter;html=1;align=center;shadow=0;dashed=0;spacingTop=3;image=img/lib/active_directory/internet_cloud.svg;fontSize=16;" vertex="1" parent="1">
          <mxGeometry x="174" y="-292" width="50" height="31.5" as="geometry" />
        </mxCell>
        <mxCell id="zuzwGjNrBEtmqdUJanQg-4" value="TheHive" style="image;aspect=fixed;perimeter=ellipsePerimeter;html=1;align=center;shadow=0;dashed=0;spacingTop=3;image=img/lib/active_directory/internet_cloud.svg;fontSize=16;" vertex="1" parent="1">
          <mxGeometry x="478" y="-292" width="50" height="31.5" as="geometry" />
        </mxCell>
        <mxCell id="zuzwGjNrBEtmqdUJanQg-18" style="edgeStyle=none;curved=1;rounded=0;orthogonalLoop=1;jettySize=auto;html=1;fontSize=12;shape=link;fillColor=#dae8fc;strokeColor=#6c8ebf;" edge="1" parent="1" source="zuzwGjNrBEtmqdUJanQg-6" target="zuzwGjNrBEtmqdUJanQg-8">
          <mxGeometry relative="1" as="geometry" />
        </mxCell>
        <mxCell id="zuzwGjNrBEtmqdUJanQg-19" value="3. Send Alerts" style="edgeLabel;html=1;align=center;verticalAlign=middle;resizable=0;points=[];fontSize=16;" vertex="1" connectable="0" parent="zuzwGjNrBEtmqdUJanQg-18">
          <mxGeometry x="0.0352" y="-1" relative="1" as="geometry">
            <mxPoint as="offset" />
          </mxGeometry>
        </mxCell>
        <mxCell id="zuzwGjNrBEtmqdUJanQg-37" style="edgeStyle=orthogonalEdgeStyle;rounded=0;orthogonalLoop=1;jettySize=auto;html=1;entryX=0;entryY=0.5;entryDx=0;entryDy=0;fontSize=12;shape=link;fillColor=#f8cecc;strokeColor=#b85450;" edge="1" parent="1" source="zuzwGjNrBEtmqdUJanQg-6" target="zuzwGjNrBEtmqdUJanQg-8">
          <mxGeometry relative="1" as="geometry">
            <Array as="points">
              <mxPoint x="-71" y="-489" />
            </Array>
          </mxGeometry>
        </mxCell>
        <mxCell id="zuzwGjNrBEtmqdUJanQg-38" value="8. Send Response Action" style="edgeLabel;html=1;align=center;verticalAlign=middle;resizable=0;points=[];fontSize=16;" vertex="1" connectable="0" parent="zuzwGjNrBEtmqdUJanQg-37">
          <mxGeometry x="-0.5613" relative="1" as="geometry">
            <mxPoint y="-35" as="offset" />
          </mxGeometry>
        </mxCell>
        <mxCell id="zuzwGjNrBEtmqdUJanQg-6" value="Wazuh Manager" style="image;aspect=fixed;perimeter=ellipsePerimeter;html=1;align=center;shadow=0;dashed=0;spacingTop=3;image=img/lib/active_directory/internet_cloud.svg;fontSize=16;" vertex="1" parent="1">
          <mxGeometry x="-96" y="-292" width="50" height="31.5" as="geometry" />
        </mxCell>
        <mxCell id="zuzwGjNrBEtmqdUJanQg-21" style="edgeStyle=none;curved=1;rounded=0;orthogonalLoop=1;jettySize=auto;html=1;entryX=0.5;entryY=0;entryDx=0;entryDy=0;fontSize=12;shape=link;fillColor=#d5e8d4;strokeColor=#82b366;" edge="1" parent="1" source="zuzwGjNrBEtmqdUJanQg-8" target="zuzwGjNrBEtmqdUJanQg-3">
          <mxGeometry relative="1" as="geometry" />
        </mxCell>
        <mxCell id="zuzwGjNrBEtmqdUJanQg-22" value="&lt;div&gt;4. Enrich IoCs&lt;/div&gt;" style="edgeLabel;html=1;align=center;verticalAlign=middle;resizable=0;points=[];fontSize=16;" vertex="1" connectable="0" parent="zuzwGjNrBEtmqdUJanQg-21">
          <mxGeometry x="0.0083" y="1" relative="1" as="geometry">
            <mxPoint as="offset" />
          </mxGeometry>
        </mxCell>
        <mxCell id="zuzwGjNrBEtmqdUJanQg-23" style="edgeStyle=none;curved=1;rounded=0;orthogonalLoop=1;jettySize=auto;html=1;fontSize=12;shape=link;fillColor=#dae8fc;strokeColor=#6c8ebf;" edge="1" parent="1" source="zuzwGjNrBEtmqdUJanQg-8" target="zuzwGjNrBEtmqdUJanQg-4">
          <mxGeometry relative="1" as="geometry" />
        </mxCell>
        <mxCell id="zuzwGjNrBEtmqdUJanQg-24" value="&lt;div&gt;5. Send Alerts&lt;/div&gt;" style="edgeLabel;html=1;align=center;verticalAlign=middle;resizable=0;points=[];fontSize=16;" vertex="1" connectable="0" parent="zuzwGjNrBEtmqdUJanQg-23">
          <mxGeometry x="-0.0093" relative="1" as="geometry">
            <mxPoint y="-1" as="offset" />
          </mxGeometry>
        </mxCell>
        <mxCell id="zuzwGjNrBEtmqdUJanQg-8" value="Shuffle" style="image;aspect=fixed;perimeter=ellipsePerimeter;html=1;align=center;shadow=0;dashed=0;spacingTop=3;image=img/lib/active_directory/internet_cloud.svg;fontSize=16;" vertex="1" parent="1">
          <mxGeometry x="174" y="-505" width="50" height="31.5" as="geometry" />
        </mxCell>
        <mxCell id="zuzwGjNrBEtmqdUJanQg-27" style="edgeStyle=none;curved=1;rounded=0;orthogonalLoop=1;jettySize=auto;html=1;fontSize=12;shape=link;fillColor=#ffe6cc;strokeColor=#d79b00;" edge="1" parent="1" source="zuzwGjNrBEtmqdUJanQg-9" target="zuzwGjNrBEtmqdUJanQg-3">
          <mxGeometry relative="1" as="geometry" />
        </mxCell>
        <mxCell id="zuzwGjNrBEtmqdUJanQg-28" value="7. Send &amp;amp; Receive Email" style="edgeLabel;html=1;align=center;verticalAlign=middle;resizable=0;points=[];fontSize=16;" vertex="1" connectable="0" parent="zuzwGjNrBEtmqdUJanQg-27">
          <mxGeometry x="0.0405" y="1" relative="1" as="geometry">
            <mxPoint as="offset" />
          </mxGeometry>
        </mxCell>
        <mxCell id="zuzwGjNrBEtmqdUJanQg-9" value="SOC Analyst" style="fontColor=#0066CC;verticalAlign=top;verticalLabelPosition=bottom;labelPosition=center;align=center;html=1;outlineConnect=0;fillColor=#CCCCCC;strokeColor=#6881B3;gradientColor=none;gradientDirection=north;strokeWidth=2;shape=mxgraph.networks.pc;fontSize=16;" vertex="1" parent="1">
          <mxGeometry x="550" y="-148" width="100" height="70" as="geometry" />
        </mxCell>
      </root>
    </mxGraphModel>
  </diagram>
</mxfile>
